<svg xmlns="http://www.w3.org/2000/svg" xmlns:v="https://svgstorm.com"
viewBox = "0 0 500 500"
width="200"
height="200">
<g fill="None" fill-opacity="0.0" stroke="#E5E5E5" stroke-opacity="1.00" stroke-width="0.3"><path d="
M 0.00 500.00 
L 500.00 500.00
L 500.00 0.00
L 0.00 0.00
L 0.00 500.00
M 251.00 139.00 
C 251.00 169.33 251.00 199.67 251.00 230.00
C 249.34 200.73 249.33 168.19 251.00 139.00
M 213.00 186.00 
C 214.95 188.62 215.07 202.37 212.00 201.00
C 207.50 199.00 206.45 189.79 200.30 187.70 C 194.15 185.61 188.24 180.69 180.99 181.01 C 173.74 181.33 165.56 182.02 159.31 185.31 C 153.05 188.59 149.65 192.19 146.08 198.08 C 142.50 203.96 142.32 212.26 145.77 218.23 C 149.22 224.20 155.00 226.19 160.00 230.00
C 141.67 237.70 130.02 217.36 135.98 202.98 C 141.93 188.59 152.82 183.46 167.00 181.00 C 181.18 178.55 200.38 179.69 213.00 186.00
M 316.00 180.00 
C 321.49 196.81 329.22 212.95 334.00 230.00
C 330.67 230.00 327.33 230.00 324.00 230.00
C 321.76 224.45 319.65 217.23 317.08 211.92 C 314.50 206.62 313.99 196.98 309.00 196.00
C 310.59 190.73 311.55 182.92 316.00 180.00
M 309.00 197.00 
C 305.65 208.21 300.92 218.95 297.00 230.00
C 297.76 219.65 303.92 206.67 309.00 197.00
M 318.00 230.00 
C 316.47 223.28 310.61 227.41 307.00 230.00
C 307.75 224.97 319.65 221.84 318.00 230.00
M 128.00 241.00 
C 123.25 246.03 130.83 243.58 133.25 247.75 C 135.66 251.93 127.60 255.09 124.00 252.00
C 125.50 252.29 134.78 251.27 131.73 248.25 C 128.69 245.23 121.28 245.02 127.00 240.00
C 128.31 237.58 131.11 240.09 133.00 240.00
C 132.17 241.75 129.56 240.66 128.00 241.00
M 149.00 239.00 
C 151.29 243.59 153.36 248.20 155.00 253.00
C 152.22 247.60 144.78 247.71 142.00 253.00
C 143.87 248.31 145.00 242.38 149.00 239.00
M 165.00 240.00 
C 165.45 241.30 165.00 243.61 165.00 245.00
C 167.65 244.76 170.35 245.18 173.00 245.00
C 172.70 243.51 172.92 237.98 175.00 240.00
C 176.68 243.54 173.74 249.26 175.00 253.00
C 173.13 251.86 174.39 248.87 174.00 247.00
C 172.12 247.83 167.09 247.19 165.00 247.00
C 165.20 248.81 165.58 251.98 164.00 253.00
C 160.66 251.06 164.19 237.65 165.00 240.00
M 191.00 239.00 
C 193.29 243.59 195.36 248.20 197.00 253.00
C 194.22 247.60 186.78 247.71 184.00 253.00
C 185.87 248.31 187.00 242.38 191.00 239.00
M 207.00 239.00 
C 209.22 243.01 212.82 246.02 215.00 250.00
C 217.16 247.24 215.45 242.51 216.00 239.00
C 218.22 242.75 216.41 248.49 217.00 253.00
C 213.24 251.32 210.84 246.28 208.00 243.00
C 205.87 245.43 207.53 249.82 207.00 253.00
C 205.41 249.40 205.29 242.53 207.00 239.00
M 229.00 241.00 
C 229.33 242.08 229.00 243.86 229.00 245.00
C 231.03 244.63 234.74 244.51 236.00 246.00
C 234.65 247.38 231.05 247.38 229.00 247.00
C 227.61 253.07 232.61 252.12 237.00 252.00
C 234.90 254.08 230.85 252.50 228.00 253.00
C 228.00 248.67 228.00 244.33 228.00 240.00
C 229.00 238.00 235.82 238.63 237.00 240.00
C 235.23 242.03 231.52 240.53 229.00 241.00
M 248.00 241.00 
C 248.33 242.09 248.00 243.86 248.00 245.00
C 250.03 244.63 253.74 244.51 255.00 246.00
C 253.66 247.38 250.05 247.38 248.00 247.00
C 246.61 253.07 251.61 252.12 256.00 252.00
C 253.90 254.08 249.85 252.50 247.00 253.00
C 247.00 248.67 247.00 244.33 247.00 240.00
C 248.00 238.00 254.82 238.63 256.00 240.00
C 254.23 242.03 250.52 240.53 248.00 241.00
M 308.00 253.00 
C 303.96 249.20 299.65 247.55 297.00 253.00
C 297.00 248.33 297.00 243.67 297.00 239.00
C 299.96 238.84 307.39 239.05 307.92 243.08 C 308.45 247.11 302.72 249.40 308.00 253.00
M 331.00 239.00 
C 332.49 243.04 332.78 249.38 331.00 253.00
C 328.92 250.90 330.50 246.85 330.00 244.00
C 327.36 245.46 327.03 248.90 325.00 251.00
C 321.53 249.88 322.06 245.33 319.00 244.00
C 318.41 246.84 320.22 250.98 318.00 253.00
C 315.79 249.58 317.58 244.18 317.00 240.00
C 320.99 240.75 322.02 245.92 324.00 249.00
C 327.30 246.60 328.18 241.72 331.00 239.00
M 353.00 253.00 
C 350.01 247.06 342.48 248.47 340.00 253.00
C 341.57 248.20 344.07 243.72 346.00 239.00
C 349.50 242.62 352.04 247.98 353.00 253.00
M 371.00 250.00 
C 373.77 247.39 370.19 241.54 373.00 239.00
C 375.10 243.20 373.50 248.39 374.00 253.00
C 369.79 251.68 367.37 246.55 365.00 243.00
C 362.28 245.28 365.77 250.79 363.00 253.00
C 360.78 249.25 362.59 243.51 362.00 239.00
C 365.79 241.86 369.16 245.88 371.00 250.00
M 286.00 250.00 
C 284.38 249.51 279.62 249.51 278.00 250.00
C 276.77 250.61 277.40 253.90 275.00 253.00
C 278.38 249.13 277.76 241.56 283.00 240.00
C 284.58 244.52 286.85 248.70 289.00 253.00
C 287.08 253.51 286.77 251.16 286.00 250.00
M 219.00 263.00 
C 226.04 282.69 210.86 300.07 191.98 304.98 C 173.09 309.88 150.36 305.22 135.00 293.00
C 135.65 287.50 133.68 280.67 136.00 276.00
C 146.56 292.94 163.47 305.51 184.00 305.00 C 204.53 304.49 223.48 281.25 208.00 263.00
C 211.67 263.00 215.33 263.00 219.00 263.00
M 251.00 264.00 
C 252.78 267.74 251.00 276.78 251.00 281.00
C 251.00 302.17 251.83 324.66 250.00 345.00
C 248.18 336.90 248.99 326.86 249.00 318.00 C 249.01 309.14 248.65 297.60 249.00 289.00 C 249.35 280.40 247.16 268.41 251.00 264.00
M 279.00 278.00 
C 278.89 280.27 278.81 282.74 279.00 285.00
C 281.72 298.14 295.17 305.13 307.23 299.23 C 319.29 293.33 323.52 282.76 326.00 271.00
C 326.54 268.45 326.74 264.98 328.00 263.00
C 329.90 265.15 328.04 269.84 327.00 272.00
C 324.08 284.57 319.35 296.51 307.25 303.25 C 295.15 310.00 277.70 308.40 271.08 295.92 C 264.46 283.44 268.28 262.61 284.00 263.00
C 281.76 267.82 278.46 272.33 279.00 278.00
M 372.00 304.00 
C 359.74 305.66 344.19 305.67 332.00 304.00
C 356.88 303.71 340.96 276.04 337.00 263.00
C 350.55 258.74 350.80 275.00 354.92 283.08 C 359.05 291.16 360.95 303.08 372.00 304.00 Z"/>
</g>
<g fill="None" fill-opacity="0.0" stroke="#171717" stroke-opacity="1.00" stroke-width="0.3"><path d="
M 251.00 139.00 
C 249.33 168.19 249.34 200.73 251.00 230.00
C 251.00 199.67 251.00 169.33 251.00 139.00 Z"/>
</g>
<g fill="None" fill-opacity="0.0" stroke="#010101" stroke-opacity="1.00" stroke-width="0.3"><path d="
M 212.00 201.00 
C 212.43 197.84 214.84 189.60 213.00 186.00
C 200.38 179.69 181.18 178.55 167.00 181.00 C 152.82 183.46 141.93 188.59 135.98 202.98 C 130.02 217.36 141.67 237.70 160.00 230.00
C 155.00 226.19 149.22 224.20 145.77 218.23 C 142.32 212.26 142.50 203.96 146.08 198.08 C 149.65 192.19 153.05 188.59 159.31 185.31 C 165.56 182.02 173.74 181.33 180.99 181.01 C 188.24 180.69 194.15 185.61 200.30 187.70 C 206.45 189.79 207.50 199.00 212.00 201.00 Z"/>
</g>
<g fill="None" fill-opacity="0.0" stroke="#000000" stroke-opacity="1.00" stroke-width="0.3"><path d="
M 316.00 180.00 
C 311.55 182.92 310.59 190.73 309.00 196.00
C 313.99 196.98 314.50 206.62 317.08 211.92 C 319.65 217.23 321.76 224.45 324.00 230.00
C 327.33 230.00 330.67 230.00 334.00 230.00
C 329.22 212.95 321.49 196.81 316.00 180.00 Z"/>
</g>
<g fill="None" fill-opacity="0.0" stroke="#646464" stroke-opacity="1.00" stroke-width="0.3"><path d="
M 212.00 201.00 
C 215.07 202.37 214.95 188.62 213.00 186.00
C 214.84 189.60 212.43 197.84 212.00 201.00 Z"/>
</g>
<g fill="None" fill-opacity="0.0" stroke="#343434" stroke-opacity="1.00" stroke-width="0.3"><path d="
M 309.00 197.00 
C 303.92 206.67 297.76 219.65 297.00 230.00
C 300.92 218.95 305.65 208.21 309.00 197.00 Z"/>
</g>
<g fill="None" fill-opacity="0.0" stroke="#383838" stroke-opacity="1.00" stroke-width="0.3"><path d="
M 318.00 230.00 
C 319.65 221.84 307.75 224.97 307.00 230.00
C 310.61 227.41 316.47 223.28 318.00 230.00 Z"/>
</g>
<g fill="None" fill-opacity="0.0" stroke="#4F4F4F" stroke-opacity="1.00" stroke-width="0.3"><path d="
M 127.00 240.00 
C 127.29 239.94 127.78 240.96 128.00 241.00
C 129.56 240.66 132.17 241.75 133.00 240.00
C 131.11 240.09 128.31 237.58 127.00 240.00 Z"/>
</g>
<g fill="None" fill-opacity="0.0" stroke="#2E2E2E" stroke-opacity="1.00" stroke-width="0.3"><path d="
M 149.00 239.00 
C 145.00 242.38 143.87 248.31 142.00 253.00
C 144.78 247.71 152.22 247.60 155.00 253.00
C 153.36 248.20 151.29 243.59 149.00 239.00
M 151.00 248.00 
C 145.71 249.62 145.26 245.20 148.00 242.00
C 149.47 243.49 150.74 245.78 151.00 248.00 Z"/>
</g>
<g fill="None" fill-opacity="0.0" stroke="#A0A0A0" stroke-opacity="1.00" stroke-width="0.3"><path d="
M 164.00 253.00 
C 164.64 248.83 162.71 243.34 165.00 240.00
C 164.19 237.65 160.66 251.06 164.00 253.00 Z"/>
</g>
<g fill="None" fill-opacity="0.0" stroke="#7A7A7A" stroke-opacity="1.00" stroke-width="0.3"><path d="
M 165.00 245.00 
C 165.00 245.50 165.00 246.00 165.00 246.00
C 167.36 245.79 172.07 244.77 174.00 245.00
C 173.92 243.45 173.39 240.76 175.00 240.00
C 172.92 237.98 172.70 243.51 173.00 245.00
C 170.35 245.18 167.65 244.76 165.00 245.00 Z"/>
</g>
<g fill="None" fill-opacity="0.0" stroke="#2E2E2E" stroke-opacity="1.00" stroke-width="0.3"><path d="
M 191.00 239.00 
C 187.00 242.38 185.87 248.31 184.00 253.00
C 186.78 247.71 194.22 247.60 197.00 253.00
C 195.36 248.20 193.29 243.59 191.00 239.00
M 193.00 248.00 
C 187.71 249.62 187.26 245.20 190.00 242.00
C 191.47 243.49 192.74 245.78 193.00 248.00 Z"/>
</g>
<g fill="None" fill-opacity="0.0" stroke="#0B0B0B" stroke-opacity="1.00" stroke-width="0.3"><path d="
M 207.00 239.00 
C 205.29 242.53 205.41 249.40 207.00 253.00
C 207.53 249.82 205.87 245.43 208.00 243.00
C 210.84 246.28 213.24 251.32 217.00 253.00
C 216.41 248.49 218.22 242.75 216.00 239.00
C 215.45 242.51 217.16 247.24 215.00 250.00
C 212.82 246.02 209.22 243.01 207.00 239.00 Z"/>
</g>
<g fill="None" fill-opacity="0.0" stroke="#5B5B5B" stroke-opacity="1.00" stroke-width="0.3"><path d="
M 228.00 240.00 
C 227.98 240.05 228.89 240.65 229.00 241.00
C 231.52 240.53 235.23 242.03 237.00 240.00
C 235.82 238.63 229.00 238.00 228.00 240.00 Z"/>
</g>
<g fill="None" fill-opacity="0.0" stroke="#5B5B5B" stroke-opacity="1.00" stroke-width="0.3"><path d="
M 247.00 240.00 
C 246.98 240.05 247.89 240.65 248.00 241.00
C 250.52 240.53 254.23 242.03 256.00 240.00
C 254.82 238.63 248.00 238.00 247.00 240.00 Z"/>
</g>
<g fill="None" fill-opacity="0.0" stroke="#404040" stroke-opacity="1.00" stroke-width="0.3"><path d="
M 308.00 253.00 
C 302.72 249.40 308.45 247.11 307.92 243.08 C 307.39 239.05 299.96 238.84 297.00 239.00
C 297.00 243.67 297.00 248.33 297.00 253.00
C 299.65 247.55 303.96 249.20 308.00 253.00
M 299.00 247.00 
C 297.35 232.71 314.31 249.08 299.00 247.00 Z"/>
</g>
<g fill="None" fill-opacity="0.0" stroke="#3E3E3E" stroke-opacity="1.00" stroke-width="0.3"><path d="
M 331.00 239.00 
C 328.18 241.72 327.30 246.60 324.00 249.00
C 322.02 245.92 320.99 240.75 317.00 240.00
C 317.58 244.18 315.79 249.58 318.00 253.00
C 320.22 250.98 318.41 246.84 319.00 244.00
C 322.06 245.33 321.53 249.88 325.00 251.00
C 327.03 248.90 327.36 245.46 330.00 244.00
C 330.50 246.85 328.92 250.90 331.00 253.00
C 332.78 249.38 332.49 243.04 331.00 239.00 Z"/>
</g>
<g fill="None" fill-opacity="0.0" stroke="#303030" stroke-opacity="1.00" stroke-width="0.3"><path d="
M 353.00 253.00 
C 352.04 247.98 349.50 242.62 346.00 239.00
C 344.07 243.72 341.57 248.20 340.00 253.00
C 342.48 248.47 350.01 247.06 353.00 253.00
M 350.00 248.00 
C 344.10 249.38 343.64 246.29 346.00 242.00
C 348.40 243.09 348.67 246.00 350.00 248.00 Z"/>
</g>
<g fill="None" fill-opacity="0.0" stroke="#393939" stroke-opacity="1.00" stroke-width="0.3"><path d="
M 371.00 250.00 
C 369.16 245.88 365.79 241.86 362.00 239.00
C 362.59 243.51 360.78 249.25 363.00 253.00
C 365.77 250.79 362.28 245.28 365.00 243.00
C 367.37 246.55 369.79 251.68 374.00 253.00
C 373.50 248.39 375.10 243.20 373.00 239.00
C 370.19 241.54 373.77 247.39 371.00 250.00 Z"/>
</g>
<g fill="None" fill-opacity="0.0" stroke="#202020" stroke-opacity="1.00" stroke-width="0.3"><path d="
M 128.00 241.00 
C 127.78 240.96 127.29 239.94 127.00 240.00
C 121.28 245.02 128.69 245.23 131.73 248.25 C 134.78 251.27 125.50 252.29 124.00 252.00
C 127.60 255.09 135.66 251.93 133.25 247.75 C 130.83 243.58 123.25 246.03 128.00 241.00 Z"/>
</g>
<g fill="None" fill-opacity="0.0" stroke="#000000" stroke-opacity="1.00" stroke-width="0.3"><path d="
M 164.00 253.00 
C 165.58 251.98 165.20 248.81 165.00 247.00
C 164.95 246.51 165.00 246.00 165.00 246.00
C 165.00 246.00 165.00 245.50 165.00 245.00
C 165.00 243.61 165.45 241.30 165.00 240.00
C 162.71 243.34 164.64 248.83 164.00 253.00 Z"/>
</g>
<g fill="None" fill-opacity="0.0" stroke="#000000" stroke-opacity="1.00" stroke-width="0.3"><path d="
M 174.00 245.00 
C 174.03 245.50 174.03 246.50 174.00 247.00
C 174.39 248.87 173.13 251.86 175.00 253.00
C 173.74 249.26 176.68 243.54 175.00 240.00
C 173.39 240.76 173.92 243.45 174.00 245.00 Z"/>
</g>
<g fill="None" fill-opacity="0.0" stroke="#000000" stroke-opacity="1.00" stroke-width="0.3"><path d="
M 229.00 247.00 
C 229.11 246.53 229.00 246.00 229.00 246.00
C 229.00 245.50 229.00 245.00 229.00 245.00
C 229.00 243.86 229.33 242.08 229.00 241.00
C 228.89 240.65 227.98 240.05 228.00 240.00
C 228.00 244.33 228.00 248.67 228.00 253.00
C 230.85 252.50 234.90 254.08 237.00 252.00
C 232.61 252.12 227.61 253.07 229.00 247.00 Z"/>
</g>
<g fill="None" fill-opacity="0.0" stroke="#000000" stroke-opacity="1.00" stroke-width="0.3"><path d="
M 248.00 247.00 
C 248.11 246.53 248.00 246.00 248.00 246.00
C 248.00 245.50 248.00 245.00 248.00 245.00
C 248.00 243.86 248.33 242.09 248.00 241.00
C 247.89 240.65 246.98 240.05 247.00 240.00
C 247.00 244.33 247.00 248.67 247.00 253.00
C 249.85 252.50 253.90 254.08 256.00 252.00
C 251.61 252.12 246.61 253.07 248.00 247.00 Z"/>
</g>
<g fill="None" fill-opacity="0.0" stroke="#282828" stroke-opacity="1.00" stroke-width="0.3"><path d="
M 278.00 250.00 
C 280.64 248.69 283.41 248.71 286.00 250.00
C 286.77 251.16 287.08 253.51 289.00 253.00
C 286.85 248.70 284.58 244.52 283.00 240.00
C 277.76 241.56 278.38 249.13 275.00 253.00
C 277.40 253.90 276.77 250.61 278.00 250.00
M 283.00 242.00 
C 284.40 246.56 285.38 249.22 279.00 248.00
C 280.57 246.14 279.71 241.90 283.00 242.00 Z"/>
</g>
<g fill="None" fill-opacity="0.0" stroke="#E4E4E4" stroke-opacity="1.00" stroke-width="0.3"><path d="
M 299.00 247.00 
C 314.31 249.08 297.35 232.71 299.00 247.00 Z"/>
</g>
<g fill="None" fill-opacity="0.0" stroke="#DBDBDB" stroke-opacity="1.00" stroke-width="0.3"><path d="
M 151.00 248.00 
C 150.74 245.78 149.47 243.49 148.00 242.00
C 145.26 245.20 145.71 249.62 151.00 248.00 Z"/>
</g>
<g fill="None" fill-opacity="0.0" stroke="#DBDBDB" stroke-opacity="1.00" stroke-width="0.3"><path d="
M 193.00 248.00 
C 192.74 245.78 191.47 243.49 190.00 242.00
C 187.26 245.20 187.71 249.62 193.00 248.00 Z"/>
</g>
<g fill="None" fill-opacity="0.0" stroke="#D8D8D8" stroke-opacity="1.00" stroke-width="0.3"><path d="
M 283.00 242.00 
C 279.71 241.90 280.57 246.14 279.00 248.00
C 285.38 249.22 284.40 246.56 283.00 242.00 Z"/>
</g>
<g fill="None" fill-opacity="0.0" stroke="#D8D8D8" stroke-opacity="1.00" stroke-width="0.3"><path d="
M 350.00 248.00 
C 348.67 246.00 348.40 243.09 346.00 242.00
C 343.64 246.29 344.10 249.38 350.00 248.00 Z"/>
</g>
<g fill="None" fill-opacity="0.0" stroke="#3B3B3B" stroke-opacity="1.00" stroke-width="0.3"><path d="
M 165.00 246.00 
C 165.00 246.00 164.95 246.51 165.00 247.00
C 167.09 247.19 172.12 247.83 174.00 247.00
C 174.03 246.50 174.03 245.50 174.00 245.00
C 172.07 244.77 167.36 245.79 165.00 246.00 Z"/>
</g>
<g fill="None" fill-opacity="0.0" stroke="#767676" stroke-opacity="1.00" stroke-width="0.3"><path d="
M 229.00 246.00 
C 231.29 245.69 233.70 246.23 236.00 246.00
C 234.74 244.51 231.03 244.63 229.00 245.00
C 229.00 245.00 229.00 245.50 229.00 246.00 Z"/>
</g>
<g fill="None" fill-opacity="0.0" stroke="#767676" stroke-opacity="1.00" stroke-width="0.3"><path d="
M 248.00 246.00 
C 250.29 246.31 252.70 245.77 255.00 246.00
C 253.74 244.51 250.03 244.63 248.00 245.00
C 248.00 245.00 248.00 245.50 248.00 246.00 Z"/>
</g>
<g fill="None" fill-opacity="0.0" stroke="#3F3F3F" stroke-opacity="1.00" stroke-width="0.3"><path d="
M 229.00 247.00 
C 231.05 247.38 234.65 247.38 236.00 246.00
C 233.70 246.23 231.29 245.69 229.00 246.00
C 229.00 246.00 229.11 246.53 229.00 247.00 Z"/>
</g>
<g fill="None" fill-opacity="0.0" stroke="#3F3F3F" stroke-opacity="1.00" stroke-width="0.3"><path d="
M 248.00 247.00 
C 250.05 247.38 253.66 247.38 255.00 246.00
C 252.70 245.77 250.29 246.31 248.00 246.00
C 248.00 246.00 248.11 246.53 248.00 247.00 Z"/>
</g>
<g fill="None" fill-opacity="0.0" stroke="#8C8C8C" stroke-opacity="1.00" stroke-width="0.3"><path d="
M 278.00 250.00 
C 279.62 249.51 284.38 249.51 286.00 250.00
C 283.41 248.71 280.64 248.69 278.00 250.00 Z"/>
</g>
<g fill="None" fill-opacity="0.0" stroke="#010101" stroke-opacity="1.00" stroke-width="0.3"><path d="
M 219.00 263.00 
C 215.33 263.00 211.67 263.00 208.00 263.00
C 223.48 281.25 204.53 304.49 184.00 305.00 C 163.47 305.51 146.56 292.94 136.00 276.00
C 133.68 280.67 135.65 287.50 135.00 293.00
C 150.36 305.22 173.09 309.88 191.98 304.98 C 210.86 300.07 226.04 282.69 219.00 263.00 Z"/>
</g>
<g fill="None" fill-opacity="0.0" stroke="#777777" stroke-opacity="1.00" stroke-width="0.3"><path d="
M 251.00 281.00 
C 250.54 276.30 248.43 268.61 251.00 264.00
C 247.16 268.41 249.35 280.40 249.00 289.00 C 248.65 297.60 249.01 309.14 249.00 318.00 C 248.99 326.86 248.18 336.90 250.00 345.00
C 251.83 324.66 251.00 302.17 251.00 281.00 Z"/>
</g>
<g fill="None" fill-opacity="0.0" stroke="#000000" stroke-opacity="1.00" stroke-width="0.3"><path d="
M 327.00 272.00 
C 326.96 271.65 326.00 271.16 326.00 271.00
C 323.52 282.76 319.29 293.33 307.23 299.23 C 295.17 305.13 281.72 298.14 279.00 285.00
C 278.45 282.33 278.58 280.57 279.00 278.00
C 278.46 272.33 281.76 267.82 284.00 263.00
C 268.28 262.61 264.46 283.44 271.08 295.92 C 277.70 308.40 295.15 310.00 307.25 303.25 C 319.35 296.51 324.08 284.57 327.00 272.00 Z"/>
</g>
<g fill="None" fill-opacity="0.0" stroke="#3A3A3A" stroke-opacity="1.00" stroke-width="0.3"><path d="
M 326.00 271.00 
C 326.00 271.16 326.96 271.65 327.00 272.00
C 328.04 269.84 329.90 265.15 328.00 263.00
C 326.74 264.98 326.54 268.45 326.00 271.00 Z"/>
</g>
<g fill="None" fill-opacity="0.0" stroke="#000000" stroke-opacity="1.00" stroke-width="0.3"><path d="
M 372.00 304.00 
C 360.95 303.08 359.05 291.16 354.92 283.08 C 350.80 275.00 350.55 258.74 337.00 263.00
C 340.96 276.04 356.88 303.71 332.00 304.00
C 344.19 305.67 359.74 305.66 372.00 304.00 Z"/>
</g>
<g fill="None" fill-opacity="0.0" stroke="#474747" stroke-opacity="1.00" stroke-width="0.3"><path d="
M 251.00 281.00 
C 251.00 276.78 252.78 267.74 251.00 264.00
C 248.43 268.61 250.54 276.30 251.00 281.00 Z"/>
</g>
<g fill="None" fill-opacity="0.0" stroke="#717171" stroke-opacity="1.00" stroke-width="0.3"><path d="
M 279.00 285.00 
C 278.81 282.74 278.89 280.27 279.00 278.00
C 278.58 280.57 278.45 282.33 279.00 285.00 Z"/>
</g>
<g fill="#E5E5E5" fill-opacity="1.00" stroke="None">
<path d="
M 0.00 500.00 
L 500.00 500.00
L 500.00 0.00
L 0.00 0.00
L 0.00 500.00
M 251.00 139.00 
C 251.00 169.33 251.00 199.67 251.00 230.00
C 249.34 200.73 249.33 168.19 251.00 139.00
M 213.00 186.00 
C 214.95 188.62 215.07 202.37 212.00 201.00
C 207.50 199.00 206.45 189.79 200.30 187.70 C 194.15 185.61 188.24 180.69 180.99 181.01 C 173.74 181.33 165.56 182.02 159.31 185.31 C 153.05 188.59 149.65 192.19 146.08 198.08 C 142.50 203.96 142.32 212.26 145.77 218.23 C 149.22 224.20 155.00 226.19 160.00 230.00
C 141.67 237.70 130.02 217.36 135.98 202.98 C 141.93 188.59 152.82 183.46 167.00 181.00 C 181.18 178.55 200.38 179.69 213.00 186.00
M 316.00 180.00 
C 321.49 196.81 329.22 212.95 334.00 230.00
C 330.67 230.00 327.33 230.00 324.00 230.00
C 321.76 224.45 319.65 217.23 317.08 211.92 C 314.50 206.62 313.99 196.98 309.00 196.00
C 310.59 190.73 311.55 182.92 316.00 180.00
M 309.00 197.00 
C 305.65 208.21 300.92 218.95 297.00 230.00
C 297.76 219.65 303.92 206.67 309.00 197.00
M 318.00 230.00 
C 316.47 223.28 310.61 227.41 307.00 230.00
C 307.75 224.97 319.65 221.84 318.00 230.00
M 128.00 241.00 
C 123.25 246.03 130.83 243.58 133.25 247.75 C 135.66 251.93 127.60 255.09 124.00 252.00
C 125.50 252.29 134.78 251.27 131.73 248.25 C 128.69 245.23 121.28 245.02 127.00 240.00
C 128.31 237.58 131.11 240.09 133.00 240.00
C 132.17 241.75 129.56 240.66 128.00 241.00
M 149.00 239.00 
C 151.29 243.59 153.36 248.20 155.00 253.00
C 152.22 247.60 144.78 247.71 142.00 253.00
C 143.87 248.31 145.00 242.38 149.00 239.00
M 165.00 240.00 
C 165.45 241.30 165.00 243.61 165.00 245.00
C 167.65 244.76 170.35 245.18 173.00 245.00
C 172.70 243.51 172.92 237.98 175.00 240.00
C 176.68 243.54 173.74 249.26 175.00 253.00
C 173.13 251.86 174.39 248.87 174.00 247.00
C 172.12 247.83 167.09 247.19 165.00 247.00
C 165.20 248.81 165.58 251.98 164.00 253.00
C 160.66 251.06 164.19 237.65 165.00 240.00
M 191.00 239.00 
C 193.29 243.59 195.36 248.20 197.00 253.00
C 194.22 247.60 186.78 247.71 184.00 253.00
C 185.87 248.31 187.00 242.38 191.00 239.00
M 207.00 239.00 
C 209.22 243.01 212.82 246.02 215.00 250.00
C 217.16 247.24 215.45 242.51 216.00 239.00
C 218.22 242.75 216.41 248.49 217.00 253.00
C 213.24 251.32 210.84 246.28 208.00 243.00
C 205.87 245.43 207.53 249.82 207.00 253.00
C 205.41 249.40 205.29 242.53 207.00 239.00
M 229.00 241.00 
C 229.33 242.08 229.00 243.86 229.00 245.00
C 231.03 244.63 234.74 244.51 236.00 246.00
C 234.65 247.38 231.05 247.38 229.00 247.00
C 227.61 253.07 232.61 252.12 237.00 252.00
C 234.90 254.08 230.85 252.50 228.00 253.00
C 228.00 248.67 228.00 244.33 228.00 240.00
C 229.00 238.00 235.82 238.63 237.00 240.00
C 235.23 242.03 231.52 240.53 229.00 241.00
M 248.00 241.00 
C 248.33 242.09 248.00 243.86 248.00 245.00
C 250.03 244.63 253.74 244.51 255.00 246.00
C 253.66 247.38 250.05 247.38 248.00 247.00
C 246.61 253.07 251.61 252.12 256.00 252.00
C 253.90 254.08 249.85 252.50 247.00 253.00
C 247.00 248.67 247.00 244.33 247.00 240.00
C 248.00 238.00 254.82 238.63 256.00 240.00
C 254.23 242.03 250.52 240.53 248.00 241.00
M 308.00 253.00 
C 303.96 249.20 299.65 247.55 297.00 253.00
C 297.00 248.33 297.00 243.67 297.00 239.00
C 299.96 238.84 307.39 239.05 307.92 243.08 C 308.45 247.11 302.72 249.40 308.00 253.00
M 331.00 239.00 
C 332.49 243.04 332.78 249.38 331.00 253.00
C 328.92 250.90 330.50 246.85 330.00 244.00
C 327.36 245.46 327.03 248.90 325.00 251.00
C 321.53 249.88 322.06 245.33 319.00 244.00
C 318.41 246.84 320.22 250.98 318.00 253.00
C 315.79 249.58 317.58 244.18 317.00 240.00
C 320.99 240.75 322.02 245.92 324.00 249.00
C 327.30 246.60 328.18 241.72 331.00 239.00
M 353.00 253.00 
C 350.01 247.06 342.48 248.47 340.00 253.00
C 341.57 248.20 344.07 243.72 346.00 239.00
C 349.50 242.62 352.04 247.98 353.00 253.00
M 371.00 250.00 
C 373.77 247.39 370.19 241.54 373.00 239.00
C 375.10 243.20 373.50 248.39 374.00 253.00
C 369.79 251.68 367.37 246.55 365.00 243.00
C 362.28 245.28 365.77 250.79 363.00 253.00
C 360.78 249.25 362.59 243.51 362.00 239.00
C 365.79 241.86 369.16 245.88 371.00 250.00
M 286.00 250.00 
C 284.38 249.51 279.62 249.51 278.00 250.00
C 276.77 250.61 277.40 253.90 275.00 253.00
C 278.38 249.13 277.76 241.56 283.00 240.00
C 284.58 244.52 286.85 248.70 289.00 253.00
C 287.08 253.51 286.77 251.16 286.00 250.00
M 219.00 263.00 
C 226.04 282.69 210.86 300.07 191.98 304.98 C 173.09 309.88 150.36 305.22 135.00 293.00
C 135.65 287.50 133.68 280.67 136.00 276.00
C 146.56 292.94 163.47 305.51 184.00 305.00 C 204.53 304.49 223.48 281.25 208.00 263.00
C 211.67 263.00 215.33 263.00 219.00 263.00
M 251.00 264.00 
C 252.78 267.74 251.00 276.78 251.00 281.00
C 251.00 302.17 251.83 324.66 250.00 345.00
C 248.18 336.90 248.99 326.86 249.00 318.00 C 249.01 309.14 248.65 297.60 249.00 289.00 C 249.35 280.40 247.16 268.41 251.00 264.00
M 279.00 278.00 
C 278.89 280.27 278.81 282.74 279.00 285.00
C 281.72 298.14 295.17 305.13 307.23 299.23 C 319.29 293.33 323.52 282.76 326.00 271.00
C 326.54 268.45 326.74 264.98 328.00 263.00
C 329.90 265.15 328.04 269.84 327.00 272.00
C 324.08 284.57 319.35 296.51 307.25 303.25 C 295.15 310.00 277.70 308.40 271.08 295.92 C 264.46 283.44 268.28 262.61 284.00 263.00
C 281.76 267.82 278.46 272.33 279.00 278.00
M 372.00 304.00 
C 359.74 305.66 344.19 305.67 332.00 304.00
C 356.88 303.71 340.96 276.04 337.00 263.00
C 350.55 258.74 350.80 275.00 354.92 283.08 C 359.05 291.16 360.95 303.08 372.00 304.00 Z"/>
</g>
<g fill="#171717" fill-opacity="1.00" stroke="None">
<path d="
M 251.00 139.00 
C 249.33 168.19 249.34 200.73 251.00 230.00
C 251.00 199.67 251.00 169.33 251.00 139.00 Z"/>
</g>
<g fill="#010101" fill-opacity="1.00" stroke="None">
<path d="
M 212.00 201.00 
C 212.43 197.84 214.84 189.60 213.00 186.00
C 200.38 179.69 181.18 178.55 167.00 181.00 C 152.82 183.46 141.93 188.59 135.98 202.98 C 130.02 217.36 141.67 237.70 160.00 230.00
C 155.00 226.19 149.22 224.20 145.77 218.23 C 142.32 212.26 142.50 203.96 146.08 198.08 C 149.65 192.19 153.05 188.59 159.31 185.31 C 165.56 182.02 173.74 181.33 180.99 181.01 C 188.24 180.69 194.15 185.61 200.30 187.70 C 206.45 189.79 207.50 199.00 212.00 201.00 Z"/>
</g>
<g fill="#000000" fill-opacity="1.00" stroke="None">
<path d="
M 316.00 180.00 
C 311.55 182.92 310.59 190.73 309.00 196.00
C 313.99 196.98 314.50 206.62 317.08 211.92 C 319.65 217.23 321.76 224.45 324.00 230.00
C 327.33 230.00 330.67 230.00 334.00 230.00
C 329.22 212.95 321.49 196.81 316.00 180.00 Z"/>
</g>
<g fill="#646464" fill-opacity="1.00" stroke="None">
<path d="
M 212.00 201.00 
C 215.07 202.37 214.95 188.62 213.00 186.00
C 214.84 189.60 212.43 197.84 212.00 201.00 Z"/>
</g>
<g fill="#343434" fill-opacity="1.00" stroke="None">
<path d="
M 309.00 197.00 
C 303.92 206.67 297.76 219.65 297.00 230.00
C 300.92 218.95 305.65 208.21 309.00 197.00 Z"/>
</g>
<g fill="#383838" fill-opacity="1.00" stroke="None">
<path d="
M 318.00 230.00 
C 319.65 221.84 307.75 224.97 307.00 230.00
C 310.61 227.41 316.47 223.28 318.00 230.00 Z"/>
</g>
<g fill="#4F4F4F" fill-opacity="1.00" stroke="None">
<path d="
M 127.00 240.00 
C 127.29 239.94 127.78 240.96 128.00 241.00
C 129.56 240.66 132.17 241.75 133.00 240.00
C 131.11 240.09 128.31 237.58 127.00 240.00 Z"/>
</g>
<g fill="#2E2E2E" fill-opacity="1.00" stroke="None">
<path d="
M 149.00 239.00 
C 145.00 242.38 143.87 248.31 142.00 253.00
C 144.78 247.71 152.22 247.60 155.00 253.00
C 153.36 248.20 151.29 243.59 149.00 239.00
M 151.00 248.00 
C 145.71 249.62 145.26 245.20 148.00 242.00
C 149.47 243.49 150.74 245.78 151.00 248.00 Z"/>
</g>
<g fill="#A0A0A0" fill-opacity="1.00" stroke="None">
<path d="
M 164.00 253.00 
C 164.64 248.83 162.71 243.34 165.00 240.00
C 164.19 237.65 160.66 251.06 164.00 253.00 Z"/>
</g>
<g fill="#7A7A7A" fill-opacity="1.00" stroke="None">
<path d="
M 165.00 245.00 
C 165.00 245.50 165.00 246.00 165.00 246.00
C 167.36 245.79 172.07 244.77 174.00 245.00
C 173.92 243.45 173.39 240.76 175.00 240.00
C 172.92 237.98 172.70 243.51 173.00 245.00
C 170.35 245.18 167.65 244.76 165.00 245.00 Z"/>
</g>
<g fill="#2E2E2E" fill-opacity="1.00" stroke="None">
<path d="
M 191.00 239.00 
C 187.00 242.38 185.87 248.31 184.00 253.00
C 186.78 247.71 194.22 247.60 197.00 253.00
C 195.36 248.20 193.29 243.59 191.00 239.00
M 193.00 248.00 
C 187.71 249.62 187.26 245.20 190.00 242.00
C 191.47 243.49 192.74 245.78 193.00 248.00 Z"/>
</g>
<g fill="#0B0B0B" fill-opacity="1.00" stroke="None">
<path d="
M 207.00 239.00 
C 205.29 242.53 205.41 249.40 207.00 253.00
C 207.53 249.82 205.87 245.43 208.00 243.00
C 210.84 246.28 213.24 251.32 217.00 253.00
C 216.41 248.49 218.22 242.75 216.00 239.00
C 215.45 242.51 217.16 247.24 215.00 250.00
C 212.82 246.02 209.22 243.01 207.00 239.00 Z"/>
</g>
<g fill="#5B5B5B" fill-opacity="1.00" stroke="None">
<path d="
M 228.00 240.00 
C 227.98 240.05 228.89 240.65 229.00 241.00
C 231.52 240.53 235.23 242.03 237.00 240.00
C 235.82 238.63 229.00 238.00 228.00 240.00 Z"/>
</g>
<g fill="#5B5B5B" fill-opacity="1.00" stroke="None">
<path d="
M 247.00 240.00 
C 246.98 240.05 247.89 240.65 248.00 241.00
C 250.52 240.53 254.23 242.03 256.00 240.00
C 254.82 238.63 248.00 238.00 247.00 240.00 Z"/>
</g>
<g fill="#404040" fill-opacity="1.00" stroke="None">
<path d="
M 308.00 253.00 
C 302.72 249.40 308.45 247.11 307.92 243.08 C 307.39 239.05 299.96 238.84 297.00 239.00
C 297.00 243.67 297.00 248.33 297.00 253.00
C 299.65 247.55 303.96 249.20 308.00 253.00
M 299.00 247.00 
C 297.35 232.71 314.31 249.08 299.00 247.00 Z"/>
</g>
<g fill="#3E3E3E" fill-opacity="1.00" stroke="None">
<path d="
M 331.00 239.00 
C 328.18 241.72 327.30 246.60 324.00 249.00
C 322.02 245.92 320.99 240.75 317.00 240.00
C 317.58 244.18 315.79 249.58 318.00 253.00
C 320.22 250.98 318.41 246.84 319.00 244.00
C 322.06 245.33 321.53 249.88 325.00 251.00
C 327.03 248.90 327.36 245.46 330.00 244.00
C 330.50 246.85 328.92 250.90 331.00 253.00
C 332.78 249.38 332.49 243.04 331.00 239.00 Z"/>
</g>
<g fill="#303030" fill-opacity="1.00" stroke="None">
<path d="
M 353.00 253.00 
C 352.04 247.98 349.50 242.62 346.00 239.00
C 344.07 243.72 341.57 248.20 340.00 253.00
C 342.48 248.47 350.01 247.06 353.00 253.00
M 350.00 248.00 
C 344.10 249.38 343.64 246.29 346.00 242.00
C 348.40 243.09 348.67 246.00 350.00 248.00 Z"/>
</g>
<g fill="#393939" fill-opacity="1.00" stroke="None">
<path d="
M 371.00 250.00 
C 369.16 245.88 365.79 241.86 362.00 239.00
C 362.59 243.51 360.78 249.25 363.00 253.00
C 365.77 250.79 362.28 245.28 365.00 243.00
C 367.37 246.55 369.79 251.68 374.00 253.00
C 373.50 248.39 375.10 243.20 373.00 239.00
C 370.19 241.54 373.77 247.39 371.00 250.00 Z"/>
</g>
<g fill="#202020" fill-opacity="1.00" stroke="None">
<path d="
M 128.00 241.00 
C 127.78 240.96 127.29 239.94 127.00 240.00
C 121.28 245.02 128.69 245.23 131.73 248.25 C 134.78 251.27 125.50 252.29 124.00 252.00
C 127.60 255.09 135.66 251.93 133.25 247.75 C 130.83 243.58 123.25 246.03 128.00 241.00 Z"/>
</g>
<g fill="#000000" fill-opacity="1.00" stroke="None">
<path d="
M 164.00 253.00 
C 165.58 251.98 165.20 248.81 165.00 247.00
C 164.95 246.51 165.00 246.00 165.00 246.00
C 165.00 246.00 165.00 245.50 165.00 245.00
C 165.00 243.61 165.45 241.30 165.00 240.00
C 162.71 243.34 164.64 248.83 164.00 253.00 Z"/>
</g>
<g fill="#000000" fill-opacity="1.00" stroke="None">
<path d="
M 174.00 245.00 
C 174.03 245.50 174.03 246.50 174.00 247.00
C 174.39 248.87 173.13 251.86 175.00 253.00
C 173.74 249.26 176.68 243.54 175.00 240.00
C 173.39 240.76 173.92 243.45 174.00 245.00 Z"/>
</g>
<g fill="#000000" fill-opacity="1.00" stroke="None">
<path d="
M 229.00 247.00 
C 229.11 246.53 229.00 246.00 229.00 246.00
C 229.00 245.50 229.00 245.00 229.00 245.00
C 229.00 243.86 229.33 242.08 229.00 241.00
C 228.89 240.65 227.98 240.05 228.00 240.00
C 228.00 244.33 228.00 248.67 228.00 253.00
C 230.85 252.50 234.90 254.08 237.00 252.00
C 232.61 252.12 227.61 253.07 229.00 247.00 Z"/>
</g>
<g fill="#000000" fill-opacity="1.00" stroke="None">
<path d="
M 248.00 247.00 
C 248.11 246.53 248.00 246.00 248.00 246.00
C 248.00 245.50 248.00 245.00 248.00 245.00
C 248.00 243.86 248.33 242.09 248.00 241.00
C 247.89 240.65 246.98 240.05 247.00 240.00
C 247.00 244.33 247.00 248.67 247.00 253.00
C 249.85 252.50 253.90 254.08 256.00 252.00
C 251.61 252.12 246.61 253.07 248.00 247.00 Z"/>
</g>
<g fill="#282828" fill-opacity="1.00" stroke="None">
<path d="
M 278.00 250.00 
C 280.64 248.69 283.41 248.71 286.00 250.00
C 286.77 251.16 287.08 253.51 289.00 253.00
C 286.85 248.70 284.58 244.52 283.00 240.00
C 277.76 241.56 278.38 249.13 275.00 253.00
C 277.40 253.90 276.77 250.61 278.00 250.00
M 283.00 242.00 
C 284.40 246.56 285.38 249.22 279.00 248.00
C 280.57 246.14 279.71 241.90 283.00 242.00 Z"/>
</g>
<g fill="#E4E4E4" fill-opacity="1.00" stroke="None">
<path d="
M 299.00 247.00 
C 314.31 249.08 297.35 232.71 299.00 247.00 Z"/>
</g>
<g fill="#DBDBDB" fill-opacity="1.00" stroke="None">
<path d="
M 151.00 248.00 
C 150.74 245.78 149.47 243.49 148.00 242.00
C 145.26 245.20 145.71 249.62 151.00 248.00 Z"/>
</g>
<g fill="#DBDBDB" fill-opacity="1.00" stroke="None">
<path d="
M 193.00 248.00 
C 192.74 245.78 191.47 243.49 190.00 242.00
C 187.26 245.20 187.71 249.62 193.00 248.00 Z"/>
</g>
<g fill="#D8D8D8" fill-opacity="1.00" stroke="None">
<path d="
M 283.00 242.00 
C 279.71 241.90 280.57 246.14 279.00 248.00
C 285.38 249.22 284.40 246.56 283.00 242.00 Z"/>
</g>
<g fill="#D8D8D8" fill-opacity="1.00" stroke="None">
<path d="
M 350.00 248.00 
C 348.67 246.00 348.40 243.09 346.00 242.00
C 343.64 246.29 344.10 249.38 350.00 248.00 Z"/>
</g>
<g fill="#3B3B3B" fill-opacity="1.00" stroke="None">
<path d="
M 165.00 246.00 
C 165.00 246.00 164.95 246.51 165.00 247.00
C 167.09 247.19 172.12 247.83 174.00 247.00
C 174.03 246.50 174.03 245.50 174.00 245.00
C 172.07 244.77 167.36 245.79 165.00 246.00 Z"/>
</g>
<g fill="#767676" fill-opacity="1.00" stroke="None">
<path d="
M 229.00 246.00 
C 231.29 245.69 233.70 246.23 236.00 246.00
C 234.74 244.51 231.03 244.63 229.00 245.00
C 229.00 245.00 229.00 245.50 229.00 246.00 Z"/>
</g>
<g fill="#767676" fill-opacity="1.00" stroke="None">
<path d="
M 248.00 246.00 
C 250.29 246.31 252.70 245.77 255.00 246.00
C 253.74 244.51 250.03 244.63 248.00 245.00
C 248.00 245.00 248.00 245.50 248.00 246.00 Z"/>
</g>
<g fill="#3F3F3F" fill-opacity="1.00" stroke="None">
<path d="
M 229.00 247.00 
C 231.05 247.38 234.65 247.38 236.00 246.00
C 233.70 246.23 231.29 245.69 229.00 246.00
C 229.00 246.00 229.11 246.53 229.00 247.00 Z"/>
</g>
<g fill="#3F3F3F" fill-opacity="1.00" stroke="None">
<path d="
M 248.00 247.00 
C 250.05 247.38 253.66 247.38 255.00 246.00
C 252.70 245.77 250.29 246.31 248.00 246.00
C 248.00 246.00 248.11 246.53 248.00 247.00 Z"/>
</g>
<g fill="#8C8C8C" fill-opacity="1.00" stroke="None">
<path d="
M 278.00 250.00 
C 279.62 249.51 284.38 249.51 286.00 250.00
C 283.41 248.71 280.64 248.69 278.00 250.00 Z"/>
</g>
<g fill="#010101" fill-opacity="1.00" stroke="None">
<path d="
M 219.00 263.00 
C 215.33 263.00 211.67 263.00 208.00 263.00
C 223.48 281.25 204.53 304.49 184.00 305.00 C 163.47 305.51 146.56 292.94 136.00 276.00
C 133.68 280.67 135.65 287.50 135.00 293.00
C 150.36 305.22 173.09 309.88 191.98 304.98 C 210.86 300.07 226.04 282.69 219.00 263.00 Z"/>
</g>
<g fill="#777777" fill-opacity="1.00" stroke="None">
<path d="
M 251.00 281.00 
C 250.54 276.30 248.43 268.61 251.00 264.00
C 247.16 268.41 249.35 280.40 249.00 289.00 C 248.65 297.60 249.01 309.14 249.00 318.00 C 248.99 326.86 248.18 336.90 250.00 345.00
C 251.83 324.66 251.00 302.17 251.00 281.00 Z"/>
</g>
<g fill="#000000" fill-opacity="1.00" stroke="None">
<path d="
M 327.00 272.00 
C 326.96 271.65 326.00 271.16 326.00 271.00
C 323.52 282.76 319.29 293.33 307.23 299.23 C 295.17 305.13 281.72 298.14 279.00 285.00
C 278.45 282.33 278.58 280.57 279.00 278.00
C 278.46 272.33 281.76 267.82 284.00 263.00
C 268.28 262.61 264.46 283.44 271.08 295.92 C 277.70 308.40 295.15 310.00 307.25 303.25 C 319.35 296.51 324.08 284.57 327.00 272.00 Z"/>
</g>
<g fill="#3A3A3A" fill-opacity="1.00" stroke="None">
<path d="
M 326.00 271.00 
C 326.00 271.16 326.96 271.65 327.00 272.00
C 328.04 269.84 329.90 265.15 328.00 263.00
C 326.74 264.98 326.54 268.45 326.00 271.00 Z"/>
</g>
<g fill="#000000" fill-opacity="1.00" stroke="None">
<path d="
M 372.00 304.00 
C 360.95 303.08 359.05 291.16 354.92 283.08 C 350.80 275.00 350.55 258.74 337.00 263.00
C 340.96 276.04 356.88 303.71 332.00 304.00
C 344.19 305.67 359.74 305.66 372.00 304.00 Z"/>
</g>
<g fill="#474747" fill-opacity="1.00" stroke="None">
<path d="
M 251.00 281.00 
C 251.00 276.78 252.78 267.74 251.00 264.00
C 248.43 268.61 250.54 276.30 251.00 281.00 Z"/>
</g>
<g fill="#717171" fill-opacity="1.00" stroke="None">
<path d="
M 279.00 285.00 
C 278.81 282.74 278.89 280.27 279.00 278.00
C 278.58 280.57 278.45 282.33 279.00 285.00 Z"/>
</g>
</svg>